# xmcd
#
# Track frame offsets:
#	150
#	16345
#	31111
#	47715
#	69581
#	89474
#	106277
#	130153
#	155598
#	171146
#	186997
#	201647
#	221048
#	238533
#	261155
#	277817
#	293872
#	308710
#
# Disc length: 4357
#
# Revision: 1
# Processed by: cddbd v1.5.1PL0 Copyright (c) Steve Scherf et al.
# Submitted via: dBpowerAMP V4.0
# Normalized: r0:DSETVAR1,TDELIM( - )
#
DISCID=07110312
DTITLE=Various Artist - Best Of Love 2001
DYEAR=2001
DGENRE=Ballad
TTITLE0=Atomic Kitten - Eternal Flame
TTITLE1=Gabrielle - Out Of Reach
TTITLE2=Aaron Carter - I'm All About You
TTITLE3=Christina Aguilera - Gream A Dream
TTITLE4=Jessica Simpson and Marc Anthony - There You Where
TTITLE5=Backstreetboys - More Than That
TTITLE6=Sugar Johnes - A Little Bit Of Heaven
TTITLE7=Babyface - When Your Body Gets Weak
TTITLE8=Wheatus - A Little Respect
TTITLE9=Blu Cantrell - The One
TTITLE10=Hearsay - The Way To Your Love
TTITLE11=Marti Pellow - Close To You
TTITLE12=Brian McKnight - My Kind Of Girl
TTITLE13=Dub Pistols - Six Millions Ways To Live
TTITLE14=Blue - All Rise
TTITLE15=Enya - Only Time Will
TTITLE16=Ronan Keating - Living Each Day
TTITLE17=Britney Spears - Don't Let Me Be The Last To Know
EXTD=john smith
EXTT0=
EXTT1=
EXTT2=
EXTT3=
EXTT4=
EXTT5=
EXTT6=
EXTT7=
EXTT8=
EXTT9=
EXTT10=
EXTT11=
EXTT12=
EXTT13=
EXTT14=
EXTT15=
EXTT16=
EXTT17=
PLAYORDER=
